# xmcd
#
# Track frame offsets:
#	188
#	15023
#	25313
#	40650
#	56053
#	66330
#	75560
#	90245
#	105000
#	116333
#	135255
#	161538
#	176703
#	192338
#	205398
#	215215
#	226698
#	246603
#	258038
#	271980
#	289090
#
# Disc length: 4015 seconds
#
# Revision: 2
# Processed by: cddbd v1.5.1PL0 Copyright (c) Steve Scherf et al.
# Submitted via: EasyCDDAExtractor 7.0.5.4
#
DISCID=130fad15
DTITLE=Dixon, Willie and Memphis Slim - Willie's Blues
DYEAR=1960
DGENRE=Blues
TTITLE0=Nervous
TTITLE1=Good Understanding
TTITLE2=That's My Baby
TTITLE3=Slim's Thing
TTITLE4=That's All I Want Baby
TTITLE5=Don't You Tell Nobody
TTITLE6=Youth To You
TTITLE7=Sittin' And Cryin' The Blues
TTITLE8=Buiilt For Comfort
TTITLE9=I Got A Razor
TTITLE10=Go Easy
TTITLE11=Move me
TTITLE12=Beer Drinking Woman
TTITLE13=The I.C. Blues
TTITLE14=Baby Doll
TTITLE15=Blue and Disgusted
TTITLE16=Blue Brew
TTITLE17=Rack 'em Back Jack
TTITLE18=Motherless Child
TTITLE19=Brenda
TTITLE20=When Your Dough Roller Is Gone
EXTD=
EXTT0=
EXTT1=
EXTT2=
EXTT3=
EXTT4=
EXTT5=
EXTT6=
EXTT7=
EXTT8=
EXTT9=
EXTT10=
EXTT11=
EXTT12=
EXTT13=
EXTT14=
EXTT15=
EXTT16=
EXTT17=
EXTT18=
EXTT19=
EXTT20=
PLAYORDER=
